<svg id="Layer_1" data-name="Layer 1" xmlns="http://www.w3.org/2000/svg" xmlns:xlink="http://www.w3.org/1999/xlink" viewBox="0 0 1920 1080"><defs><style>.cls-1{fill:none;}.cls-2{clip-path:url(#clip-path);}</style><clipPath id="clip-path"><rect class="cls-1" width="1920" height="1080"/></clipPath></defs><title>mask</title><g class="cls-2"><path d="M874.46,1036.78A213.91,213.91,0,0,0,802.8,983c-64-29.2-189.33-72.58-407.09-99.67C43.21,839.41,0,672.42,0,672.42S-166.43,485.68-106.44,327.64c26.21-69.06,93.06-114,166.92-114.06C163.06,213.5,390.22,187.34,696.25,0,1120-259.39,1325.69-46.22,1779,120.56c436.69,160.68,141,528.08,141,528.08s-128.61,166.93-345.07,222S1223.28,892.1,1071.66,1018C963.64,1107.72,901.35,1067.39,874.46,1036.78Z"/></g></svg>